<?xml version="1.0" standalone="no"?>
<!DOCTYPE svg PUBLIC "-//W3C//DTD SVG 20010904//EN"
 "http://www.w3.org/TR/2001/REC-SVG-20010904/DTD/svg10.dtd">
<svg version="1.0" xmlns="http://www.w3.org/2000/svg"
 width="360.000000pt" height="360.000000pt" viewBox="0 0 360.000000 360.000000"
 preserveAspectRatio="xMidYMid meet">
<metadata>
Created by potrace 1.14, written by Peter Selinger 2001-2017
</metadata>
<g transform="translate(0.000000,360.000000) scale(0.100000,-0.100000)"
fill="#000000" stroke="none">
<path d="M1565 3586 c-754 -103 -1362 -663 -1524 -1405 -134 -609 67 -1257
524 -1688 606 -574 1531 -655 2226 -195 724 481 1004 1404 666 2202 -95 224
-209 392 -387 570 -268 268 -566 426 -947 500 -140 28 -414 35 -558 16z m420
-156 c378 -43 721 -213 991 -491 170 -176 272 -336 357 -559 229 -598 81
-1286 -374 -1739 -134 -134 -303 -253 -471 -330 -554 -256 -1212 -180 -1693
194 -91 72 -240 222 -306 310 -316 419 -412 981 -252 1480 142 441 459 802
875 994 156 72 285 107 528 144 53 9 259 6 345 -3z"/>
<path d="M1239 2789 c-16 -16 -20 -30 -17 -67 l3 -47 -102 -5 c-118 -6 -144
-19 -180 -90 l-23 -44 0 -841 c0 -798 1 -842 19 -881 10 -23 34 -52 52 -65
l34 -24 660 -3 c430 -2 672 1 695 7 20 6 51 27 70 46 l35 36 3 317 3 317 -56
-55 -55 -54 0 -229 c0 -138 -4 -236 -10 -248 -10 -18 -25 -19 -371 -19 -303 0
-369 -3 -419 -17 -55 -15 -62 -15 -102 0 -35 14 -81 17 -229 17 -131 0 -189 4
-197 12 -9 9 -12 209 -12 839 0 455 3 834 6 843 5 13 23 16 90 16 l84 0 0 -29
c0 -16 9 -39 19 -52 28 -34 55 -16 59 40 l3 41 115 0 114 0 0 -38 c0 -57 31
-79 64 -46 9 8 16 31 16 50 l0 34 95 0 95 0 0 -40 c0 -29 5 -42 20 -50 34 -18
60 4 60 50 l0 40 105 0 105 0 0 -34 c0 -19 7 -42 16 -50 33 -33 64 -11 64 46
l0 38 95 0 c119 0 117 3 113 -170 -2 -72 -1 -130 2 -130 3 0 30 24 59 54 l53
53 -4 109 c-3 93 -6 113 -25 140 -36 50 -77 64 -192 64 l-100 0 -3 63 c-3 56
-5 62 -26 65 -38 6 -52 -15 -52 -74 l0 -54 -105 0 -105 0 0 49 c0 67 -7 81
-40 81 -33 0 -40 -14 -40 -81 l0 -49 -95 0 -95 0 0 54 c0 45 -4 58 -22 70 -15
11 -26 12 -40 5 -14 -8 -18 -22 -18 -69 l0 -60 -115 0 -115 0 0 60 c0 49 -3
61 -20 70 -16 8 -24 6 -41 -11z"/>
<path d="M2554 2278 l-75 -72 163 -163 163 -163 58 58 c64 62 87 98 87 134 0
16 -38 61 -128 151 -160 160 -160 160 -268 55z"/>
<path d="M1275 2180 c-16 -50 -12 -50 418 -48 360 3 401 5 410 20 8 12 7 21
-2 32 -12 14 -61 16 -417 16 -397 0 -403 0 -409 -20z"/>
<path d="M2150 1875 l-275 -275 -287 0 c-247 0 -289 -2 -302 -16 -20 -20 -20
-29 0 -49 14 -14 47 -15 260 -13 134 2 244 1 244 -2 0 -2 -34 -39 -75 -80
l-76 -76 -68 -214 c-38 -118 -66 -220 -63 -228 7 -20 39 -13 262 58 l195 62
393 392 392 391 -162 162 -163 163 -275 -275z m268 130 c2 -15 -80 -103 -306
-327 -169 -170 -313 -308 -319 -308 -20 0 -35 28 -24 47 5 10 144 152 309 316
301 300 332 325 340 272z m-639 -829 c51 -51 89 -96 85 -98 -5 -3 -42 -15 -82
-28 l-74 -22 -39 38 c-21 21 -39 43 -39 49 0 19 43 155 49 155 4 0 48 -42 100
-94z"/>
<path d="M1286 1904 c-9 -8 -16 -19 -16 -24 0 -5 7 -16 16 -24 13 -14 64 -16
404 -16 340 0 391 2 404 16 9 8 16 19 16 24 0 5 -7 16 -16 24 -13 14 -64 16
-404 16 -340 0 -391 -2 -404 -16z"/>
</g>
</svg>
